<?xml version="1.0" encoding="UTF-8"?>
<!-- Generator: visioncortex VTracer 0.6.4 -->
<svg version="1.1" xmlns="http://www.w3.org/2000/svg" width="831" height="548">
<path d="M0 0 C0.68 -0.01 1.36 -0.02 2.07 -0.02 C35.14 -0.32 67.18 12.66 91.12 35.38 C96.41 40.64 101.09 46.09 105.12 52.38 C106.19 54.01 106.19 54.01 107.27 55.68 C115.08 68.05 121.01 80.47 121.12 95.38 C121.17 96.68 121.22 97.99 121.27 99.33 C121.66 112.55 120.37 125.52 114.12 137.38 C113.67 138.33 113.21 139.28 112.75 140.27 C99.76 167.25 77.06 185.52 49.02 195.41 C33.54 200.59 18.34 202.99 2.12 204.38 C2.53 205.34 2.94 206.31 3.37 207.3 C8.93 220.63 10.53 231.96 10.12 246.38 C10.11 247.2 10.09 248.02 10.07 248.87 C10 251.44 9.91 254 9.81 256.56 C9.79 257.33 9.77 258.1 9.74 258.9 C9.52 263.77 8.75 268.29 7.65 273.04 C5.96 280.54 5.43 287.9 5.06 295.56 C4.33 309.83 4.33 309.83 3.05 316.18 C2.02 321.35 2.01 326.13 2.38 331.38 C2.41 332.21 2.45 333.04 2.5 333.89 C2.77 338.92 2.77 338.92 5.12 343.38 C5.52 345.3 5.85 347.24 6.12 349.19 C6.57 352.34 7.05 355.16 8.12 358.16 C9.17 361.53 9.53 364.48 9.76 368 C9.84 369.26 9.93 370.53 10.01 371.83 C10.09 373.15 10.17 374.46 10.25 375.81 C10.38 377.73 10.38 377.73 10.51 379.69 C11.01 387.47 11.2 395.18 11.11 402.97 C11.13 408.47 11.6 413.91 12.12 419.38 C12.19 420.13 12.25 420.88 12.31 421.66 C12.85 427.62 14.12 433.4 15.41 439.24 C17.44 449.84 17.21 460.55 16.91 471.28 C16.82 477.93 17.56 483.24 20.12 489.38 C20.56 490.49 20.99 491.6 21.44 492.75 C23.54 496.02 25.63 496.81 29.12 498.38 C31.12 501.38 31.12 501.38 30.88 504.94 C30.12 508.38 30.12 508.38 28.12 510.38 C19.56 512.06 12.11 512.07 4.62 507.19 C0.78 504.26 -0.91 502.22 -1.88 497.38 C-2.39 496.69 -2.91 496.01 -3.44 495.31 C-6 491.85 -5.91 488.86 -5.62 484.62 C-5.56 480.03 -6.78 476.07 -8.19 471.75 C-11.32 461.96 -12.41 452.06 -13.58 441.88 C-14.5 434.12 -15.98 426.74 -18.16 419.24 C-18.96 416.03 -19.43 412.84 -19.88 409.56 C-20.52 404.93 -21.51 401.46 -23.88 397.38 C-23.88 396.38 -23.88 395.39 -23.88 394.38 C-25.17 395.47 -25.17 395.47 -25.19 398.12 C-26.19 405.73 -28.86 413.19 -31.94 420.19 C-36.66 431.8 -37.34 444.58 -38.05 456.95 C-38.54 464.27 -39.19 471.16 -44.88 476.38 C-44.38 477.86 -44.38 477.86 -43.88 479.38 C-42.71 487.84 -44.92 495.89 -48.88 503.38 C-51.34 505.74 -53.8 506.97 -56.88 508.38 C-57.45 508.91 -58.03 509.44 -58.62 509.99 C-61.96 512.04 -65.12 511.6 -68.88 511.31 C-69.94 511.27 -69.94 511.27 -71.03 511.23 C-74.49 511 -76.58 510.6 -79.38 508.5 C-80.88 506.38 -80.88 506.38 -80.88 503.38 C-79.76 500.03 -78.62 498.54 -75.88 496.38 C-75.22 496.38 -74.56 496.38 -73.88 496.38 C-73.61 495.45 -73.34 494.52 -73.06 493.56 C-71.88 490.38 -71.88 490.38 -70.3 488.96 C-68.67 487.46 -68.67 487.46 -68.65 485.22 C-68.71 484.45 -68.76 483.67 -68.81 482.88 C-69.05 479.21 -69.04 478.62 -66.88 475.38 C-66.86 472.56 -66.94 469.81 -67.06 467 C-67.38 454.17 -64.79 441.85 -62.42 429.3 C-60.97 421.56 -60.57 413.98 -60.31 406.12 C-60.27 404.89 -60.23 403.66 -60.18 402.38 C-59.86 392.38 -59.76 382.39 -59.88 372.38 C-61.25 377.9 -60.85 383.33 -60.71 388.98 C-60.88 392.38 -60.88 392.38 -62.88 395.38 C-67.45 394.84 -70.4 393.4 -73.88 390.38 C-77.26 384.3 -77.7 377.18 -76.88 370.38 C-76.55 369.79 -76.23 369.2 -75.9 368.6 C-74.61 365.8 -74.42 363.39 -74.16 360.32 C-74.05 359.12 -73.94 357.93 -73.83 356.71 C-73.61 354.23 -73.4 351.75 -73.2 349.28 C-72.31 339.85 -70.68 330.78 -66.28 322.3 C-64.92 319.47 -64.45 317.64 -64.29 314.55 C-64.23 313.67 -64.17 312.79 -64.1 311.89 C-64.02 310.52 -64.02 310.52 -63.94 309.12 C-63.22 300.11 -62.46 292.6 -56.44 285.5 C-51.69 282.03 -45.47 280.86 -39.88 279.38 C-40.36 278.49 -40.85 277.61 -41.35 276.71 C-43.88 271.19 -43.82 265.66 -42.15 259.84 C-40.21 255.12 -37.87 251.66 -33.88 248.38 C-28.83 246.69 -24.52 246.74 -19.62 248.62 C-16.97 250.31 -14.97 252.04 -12.88 254.38 C-12.8 253.41 -12.8 253.41 -12.73 252.43 C-12.38 248.43 -12.01 244.8 -10.81 240.94 C-8.8 233.29 -9.78 225.76 -11.06 218.06 C-11.16 217.39 -11.26 216.72 -11.37 216.03 C-12.31 210.92 -14.01 207.84 -17.88 204.38 C-20.82 203.28 -23.77 202.83 -26.88 202.38 C-28.28 202.1 -29.69 201.81 -31.09 201.52 C-31.79 201.37 -32.48 201.23 -33.2 201.08 C-58.11 195.83 -82.07 185.12 -99.88 166.38 C-99.88 165.72 -99.88 165.06 -99.88 164.38 C-100.43 164.18 -100.98 163.99 -101.54 163.79 C-104.9 161.75 -106.92 158.82 -109.19 155.69 C-109.67 155.02 -110.15 154.36 -110.65 153.67 C-124.75 133.68 -130.36 109.03 -126.46 84.8 C-125.38 80.14 -123.71 75.79 -121.88 71.38 C-121.49 70.32 -121.11 69.26 -120.71 68.16 C-112.76 47.14 -95.4 29.89 -75.88 19.38 C-74.62 18.63 -73.37 17.88 -72.12 17.12 C-64.09 12.31 -56.34 8.85 -47.3 6.35 C-44 5.49 -44 5.49 -41.5 4.35 C-28.66 -0.42 -13.54 0.06 0 0 Z M-45.88 16.38 C-46.56 16.59 -47.24 16.8 -47.94 17.02 C-72.74 24.96 -95.57 42.26 -107.88 65.38 C-111.79 73.07 -114.84 80.78 -115.88 89.38 C-116.09 90.89 -116.09 90.89 -116.31 92.43 C-118.96 116.29 -110.05 135.62 -95.82 154.04 C-79.65 173.49 -50.55 186.99 -25.88 190.38 C-21.4 190.66 -16.96 190.58 -12.48 190.42 C-9.32 190.38 -6.93 190.73 -3.88 191.38 C25.38 193.66 55.25 184.11 78.12 165.81 C79.81 164.35 81.48 162.87 83.12 161.38 C83.89 160.7 84.65 160.03 85.44 159.34 C96.73 148.84 103.63 135.95 108.12 121.38 C108.39 120.53 108.66 119.68 108.93 118.81 C113.49 100.81 109.45 80.61 101.12 64.38 C96.69 56.95 91.03 50.65 85.12 44.38 C84.47 43.64 83.82 42.9 83.15 42.13 C65.57 23.06 36.05 11.64 10.51 10.17 C-9.12 9.66 -26.98 10.25 -45.88 16.38 Z M-48.88 338.38 C-47.88 340.38 -47.88 340.38 -47.88 340.38 Z " fill="#000000" transform="translate(507.875,22.625)"/>
<path d="M0 0 C1.11 -0 2.22 -0.01 3.37 -0.01 C4.54 -0 5.7 0.01 6.91 0.02 C8.07 0.01 9.24 0 10.44 -0.01 C11.55 -0.01 12.67 -0 13.81 0 C14.84 0 15.86 0 16.92 0.01 C19.41 0.27 19.41 0.27 21.41 2.27 C21.73 5.25 21.73 5.25 21.82 9.02 C21.84 9.69 21.86 10.35 21.88 11.03 C21.94 13.15 21.99 15.27 22.03 17.39 C22.07 18.83 22.11 20.26 22.15 21.7 C22.24 25.22 22.33 28.74 22.41 32.27 C28.4 25.01 34.22 17.65 39.87 10.12 C40.67 9.07 40.67 9.07 41.49 7.99 C41.95 7.37 42.42 6.75 42.9 6.11 C43.4 5.5 43.89 4.89 44.41 4.27 C44.99 3.54 45.57 2.81 46.17 2.06 C49.22 -0.39 51.19 -0.22 55.07 -0.2 C56.36 -0.19 57.64 -0.19 58.97 -0.18 C59.97 -0.16 59.97 -0.16 60.99 -0.15 C63.03 -0.11 65.07 -0.1 67.12 -0.11 C77.13 -0.02 77.13 -0.02 79.41 2.27 C79.17 6.68 77.41 8.78 74.41 11.89 C70.34 16.23 66.55 20.7 62.82 25.32 C61.05 27.47 59.28 29.6 57.46 31.71 C56.97 32.29 56.47 32.87 55.96 33.47 C54.99 34.6 54.01 35.73 53.04 36.85 C50.75 39.52 48.78 42.01 47.41 45.27 C48.06 46.09 48.72 46.92 49.39 47.77 C55.09 54.97 60.68 62.25 66.18 69.62 C69.86 74.55 73.59 79.43 77.41 84.27 C79.06 81.78 80 79.95 81 77.21 C81.46 75.98 81.46 75.98 81.92 74.73 C82.4 73.4 82.4 73.4 82.9 72.04 C83.24 71.1 83.58 70.17 83.94 69.21 C84.67 67.21 85.41 65.21 86.14 63.2 C87.28 60.07 88.43 56.94 89.59 53.82 C92.51 45.88 95.42 37.95 98.33 30.01 C99.72 26.21 101.12 22.42 102.52 18.63 C103.03 17.27 103.53 15.91 104.02 14.54 C104.7 12.67 105.39 10.81 106.09 8.94 C106.46 7.91 106.84 6.88 107.23 5.81 C109.08 1.79 109.08 1.79 111.41 0.27 C114.41 -0.07 114.41 -0.07 118.04 -0.03 C119.34 -0.02 120.64 -0.01 121.98 0 C123.35 0.03 124.72 0.05 126.09 0.08 C127.48 0.09 128.86 0.11 130.24 0.12 C133.63 0.15 137.02 0.2 140.41 0.27 C144.6 8.07 147.72 16.13 150.71 24.46 C151.21 25.82 151.7 27.18 152.2 28.54 C153.49 32.1 154.78 35.66 156.06 39.22 C157.61 43.5 159.16 47.78 160.71 52.06 C161.95 55.48 163.19 58.9 164.43 62.33 C166.4 67.79 168.37 73.24 170.5 78.65 C170.79 79.4 171.09 80.15 171.39 80.92 C172.11 82.75 172.85 84.57 173.6 86.4 C174.47 89.51 174.39 91.21 173.41 94.27 C170.74 96.93 163.11 95.55 159.53 95.58 C158.32 95.61 157.11 95.64 155.86 95.67 C154.12 95.68 154.12 95.68 152.35 95.69 C151.28 95.71 150.22 95.72 149.12 95.74 C146.41 95.27 146.41 95.27 144.61 93.42 C143.11 90.74 142.16 88.07 141.22 85.14 C140.87 84.09 140.53 83.03 140.18 81.95 C139.41 79.27 139.41 79.27 139.41 77.27 C130.17 77.6 120.93 77.93 111.41 78.27 C109.88 83.11 109.88 83.11 108.39 87.96 C107.19 91.66 106.73 93.05 103.41 95.27 C101.03 95.54 101.03 95.54 98.19 95.57 C97.12 95.59 96.06 95.6 94.96 95.62 C93.81 95.63 92.66 95.63 91.48 95.64 C89.7 95.65 89.7 95.65 87.89 95.66 C85.39 95.68 82.89 95.69 80.38 95.69 C76.55 95.7 72.72 95.75 68.89 95.8 C66.46 95.81 64.03 95.82 61.6 95.82 C60.46 95.84 59.31 95.86 58.13 95.88 C50.17 95.84 50.17 95.84 46.35 92.99 C45.71 92.09 45.07 91.19 44.41 90.27 C43.83 89.58 43.25 88.89 42.65 88.19 C42.13 87.52 41.6 86.85 41.07 86.16 C40.48 85.4 39.89 84.65 39.28 83.87 C38.68 83.09 38.09 82.32 37.47 81.52 C36.58 80.37 36.58 80.37 35.67 79.21 C31.66 74.05 27.96 68.75 24.41 63.27 C21.66 66.02 22.13 67.67 22.06 71.52 C22.02 73.39 22.02 73.39 21.97 75.3 C21.95 76.61 21.93 77.92 21.91 79.27 C21.86 81.85 21.81 84.43 21.75 87.02 C21.73 88.17 21.71 89.32 21.69 90.5 C21.41 93.27 21.41 93.27 19.41 95.27 C16.92 95.52 16.92 95.52 13.81 95.53 C12.7 95.53 11.59 95.54 10.44 95.54 C9.27 95.53 8.11 95.52 6.91 95.52 C5.74 95.52 4.57 95.53 3.37 95.54 C2.26 95.54 1.15 95.53 0 95.53 C-1.02 95.53 -2.05 95.53 -3.1 95.52 C-5.59 95.27 -5.59 95.27 -7.59 93.27 C-7.79 90.38 -7.87 87.6 -7.85 84.72 C-7.86 83.83 -7.86 82.95 -7.86 82.04 C-7.87 79.1 -7.87 76.17 -7.86 73.23 C-7.86 71.2 -7.86 69.17 -7.87 67.14 C-7.87 62.87 -7.86 58.61 -7.85 54.35 C-7.84 48.87 -7.85 43.4 -7.86 37.92 C-7.87 33.72 -7.87 29.52 -7.86 25.33 C-7.86 23.31 -7.86 21.29 -7.87 19.27 C-7.87 16.45 -7.86 13.63 -7.85 10.81 C-7.86 9.97 -7.86 9.13 -7.86 8.27 C-7.81 1.43 -6.79 0.01 0 0 Z M124.41 37.27 C123.57 39.7 122.73 42.14 121.91 44.58 C121.67 45.27 121.43 45.96 121.18 46.67 C120.17 49.65 119.41 52.09 119.41 55.27 C123.37 55.27 127.33 55.27 131.41 55.27 C129.78 49.01 128.14 43.12 125.41 37.27 C125.08 37.27 124.75 37.27 124.41 37.27 Z " fill="#000000" transform="translate(22.59375,74.734375)"/>
<path d="M0 0 C2.03 0.01 4.06 -0.02 6.09 -0.05 C7.37 -0.05 8.65 -0.05 9.97 -0.05 C11.15 -0.05 12.32 -0.05 13.53 -0.06 C17.98 0.67 19.44 2.84 21.98 6.36 C22.4 7.02 22.81 7.68 23.23 8.36 C23.7 9.11 24.18 9.87 24.66 10.64 C25.41 11.84 25.41 11.84 26.17 13.07 C26.94 14.31 26.94 14.31 27.73 15.58 C33.08 24.17 38.35 32.8 43.6 41.45 C43.62 40.28 43.64 39.1 43.66 37.9 C43.74 33.56 43.83 29.23 43.92 24.89 C43.96 23.02 43.99 21.14 44.03 19.26 C44.07 16.56 44.13 13.87 44.19 11.17 C44.2 10.33 44.21 9.49 44.22 8.62 C44.38 2.67 44.38 2.67 46.6 0.45 C50.4 -0.03 54.22 0.08 58.04 0.07 C59.1 0.05 60.17 0.02 61.26 -0 C62.28 -0.01 63.3 -0.01 64.35 -0.01 C65.28 -0.02 66.22 -0.03 67.18 -0.04 C69.6 0.45 69.6 0.45 71.23 1.95 C73.19 5.51 73.01 8.88 72.96 12.84 C72.96 13.68 72.96 14.53 72.97 15.4 C72.97 18.19 72.95 20.97 72.93 23.76 C72.93 25.7 72.93 27.64 72.93 29.58 C72.92 33.63 72.91 37.69 72.88 41.75 C72.86 46.96 72.85 52.17 72.84 57.38 C72.84 61.38 72.83 65.38 72.81 69.38 C72.81 71.3 72.8 73.22 72.8 75.14 C72.79 77.82 72.78 80.5 72.76 83.18 C72.76 83.98 72.76 84.78 72.76 85.6 C72.74 88.81 72.63 91.38 71.6 94.45 C67.38 96.56 62.06 95.98 57.42 96.13 C56.29 96.21 55.17 96.29 54.01 96.37 C45.89 96.58 45.89 96.58 42.5 93.6 C40.62 90.97 39.11 88.3 37.6 85.45 C36.39 83.46 35.18 81.47 33.95 79.49 C32.71 77.4 31.47 75.3 30.23 73.2 C24.88 64.14 19.33 55.26 13.6 46.45 C13.6 47.03 13.59 47.61 13.58 48.22 C13.49 54.28 13.39 60.35 13.29 66.42 C13.25 68.68 13.21 70.95 13.18 73.21 C13.14 76.47 13.08 79.72 13.02 82.97 C13 84.5 13 84.5 12.98 86.05 C12.96 86.99 12.94 87.94 12.92 88.9 C12.91 89.74 12.9 90.57 12.88 91.42 C12.6 93.45 12.6 93.45 10.6 95.45 C6.62 95.9 2.61 95.77 -1.4 95.76 C-3.08 95.78 -3.08 95.78 -4.79 95.81 C-6.39 95.81 -6.39 95.81 -8.02 95.81 C-9 95.81 -9.99 95.82 -11 95.82 C-11.79 95.7 -12.58 95.57 -13.4 95.45 C-15.96 91.6 -15.68 88.44 -15.67 83.98 C-15.68 83.12 -15.68 82.26 -15.69 81.37 C-15.7 78.51 -15.7 75.65 -15.7 72.79 C-15.7 70.81 -15.71 68.82 -15.71 66.84 C-15.72 62.68 -15.72 58.52 -15.71 54.36 C-15.71 49.02 -15.72 43.69 -15.75 38.35 C-15.76 34.25 -15.76 30.16 -15.76 26.06 C-15.76 24.09 -15.77 22.12 -15.78 20.15 C-15.79 17.41 -15.78 14.66 -15.77 11.91 C-15.78 11.09 -15.78 10.28 -15.79 9.43 C-15.74 3.96 -15.74 3.96 -14.06 1.44 C-10.06 -0.96 -4.52 -0.03 0 0 Z " fill="#000000" transform="translate(567.396728515625,436.553955078125)"/>
<path d="M0 0 C1.05 -0.01 2.09 -0.03 3.17 -0.04 C4.87 -0.04 4.87 -0.04 6.61 -0.05 C8.37 -0.06 8.37 -0.06 10.16 -0.07 C12.64 -0.08 15.12 -0.08 17.61 -0.08 C21.38 -0.08 25.15 -0.12 28.93 -0.16 C31.34 -0.16 33.76 -0.17 36.17 -0.17 C37.85 -0.19 37.85 -0.19 39.56 -0.21 C49.92 -0.15 58.72 2.14 66.33 9.43 C71.77 15.54 73.33 21.82 73.2 29.83 C72.46 38.48 69.03 45.89 62.45 51.63 C60.98 52.87 59.49 54.08 57.99 55.29 C59.31 57.02 60.63 58.75 61.95 60.47 C63.11 61.99 64.27 63.51 65.42 65.03 C68.5 69.06 71.6 73.07 74.78 77.03 C75.68 78.16 75.68 78.16 76.6 79.32 C77.76 80.78 78.93 82.23 80.11 83.67 C84.01 88.61 84.01 88.61 83.9 92.21 C82.99 94.29 82.99 94.29 81.99 95.29 C77.83 95.65 73.66 95.73 69.48 95.81 C68.08 95.84 66.68 95.88 65.28 95.95 C53.79 96.47 53.79 96.47 49.7 93.79 C47.86 91.73 46.44 89.64 44.99 87.29 C43.87 85.77 42.74 84.26 41.6 82.75 C40.5 81.2 39.4 79.65 38.3 78.1 C37.2 76.55 36.09 74.99 34.98 73.44 C34.47 72.72 33.95 72 33.43 71.25 C32.2 69.58 30.91 67.97 29.6 66.36 C27.99 64.29 27.99 64.29 27.99 62.29 C26.01 62.29 24.03 62.29 21.99 62.29 C22 63.22 22.01 64.15 22.02 65.1 C22.06 68.54 22.08 71.98 22.1 75.43 C22.11 76.92 22.12 78.41 22.14 79.9 C22.17 82.03 22.18 84.17 22.19 86.31 C22.2 87.6 22.21 88.89 22.22 90.22 C21.99 93.29 21.99 93.29 19.99 95.29 C17.5 95.55 17.5 95.55 14.4 95.56 C13.28 95.56 12.17 95.56 11.03 95.56 C9.86 95.56 8.69 95.55 7.49 95.54 C6.32 95.55 5.16 95.56 3.96 95.56 C2.84 95.56 1.73 95.56 0.58 95.56 C-0.44 95.55 -1.46 95.55 -2.52 95.55 C-5.01 95.29 -5.01 95.29 -7.01 93.29 C-7.21 90.41 -7.28 87.62 -7.27 84.74 C-7.27 83.86 -7.28 82.97 -7.28 82.06 C-7.29 79.13 -7.28 76.19 -7.28 73.26 C-7.28 71.23 -7.28 69.19 -7.28 67.16 C-7.28 62.9 -7.28 58.63 -7.27 54.37 C-7.26 48.9 -7.27 43.42 -7.28 37.95 C-7.28 33.75 -7.28 29.55 -7.28 25.35 C-7.28 23.33 -7.28 21.31 -7.28 19.29 C-7.29 16.48 -7.28 13.66 -7.27 10.84 C-7.27 10 -7.28 9.16 -7.28 8.29 C-7.23 1.89 -6.49 0.05 0 0 Z M21.99 22.29 C21.99 28.23 21.99 34.17 21.99 40.29 C32.1 40.69 32.1 40.69 40.99 36.67 C42.54 32.99 42.37 30.28 41.99 26.29 C40.59 24.13 39.71 23.53 37.3 22.73 C34.25 22.15 31.34 22.2 28.24 22.23 C25.15 22.26 25.15 22.26 21.99 22.29 Z " fill="#010101" transform="translate(211.009521484375,74.70947265625)"/>
<path d="M0 0 C1.06 -0 2.13 -0.01 3.22 -0.01 C4.89 0 4.89 0 6.59 0.02 C7.7 0.01 8.82 0 9.97 -0.01 C11.03 -0.01 12.09 -0 13.19 0 C14.65 0 14.65 0 16.14 0.01 C18.53 0.27 18.53 0.27 20.53 2.27 C20.85 5.25 20.85 5.25 20.94 9.02 C20.96 9.69 20.98 10.35 21 11.03 C21.06 13.15 21.11 15.27 21.15 17.39 C21.19 18.83 21.23 20.26 21.27 21.7 C21.37 25.22 21.45 28.74 21.53 32.27 C27.15 25.44 32.65 18.56 37.97 11.5 C38.38 11 38.79 10.49 39.21 9.96 C40.6 8.23 40.6 8.23 41.89 6.11 C44.45 2.48 46.21 0.55 50.66 -0.4 C54.4 -0.59 58.04 -0.53 61.78 -0.36 C63.7 -0.33 63.7 -0.33 65.65 -0.3 C75.02 -0.07 75.02 -0.07 78.53 2.27 C78.18 7.64 75.11 10.48 71.65 14.27 C70.46 15.6 69.28 16.94 68.09 18.27 C67.49 18.94 66.89 19.61 66.28 20.3 C63.69 23.21 61.16 26.17 58.65 29.14 C58.2 29.67 57.76 30.2 57.3 30.74 C53.58 35.16 50.01 39.67 46.53 44.27 C49.1 48.98 51.89 53.22 55.28 57.39 C56.24 58.6 57.21 59.81 58.17 61.02 C58.7 61.69 59.22 62.35 59.77 63.04 C63.23 67.42 66.63 71.84 70.03 76.27 C70.72 77.16 71.42 78.06 72.13 78.98 C75.41 83.26 78.38 87.31 80.53 92.27 C79.87 93.26 79.21 94.25 78.53 95.27 C74.22 95.95 69.87 95.91 65.52 95.93 C63.36 95.95 61.22 96.03 59.06 96.12 C49.14 96.31 49.14 96.31 45.21 93.76 C43.37 91.7 41.96 89.62 40.53 87.27 C39.42 85.76 38.3 84.25 37.18 82.76 C36.08 81.22 34.99 79.68 33.9 78.14 C30.28 73.02 26.62 68.03 22.53 63.27 C20.68 65.12 21.33 68.16 21.28 70.64 C21.25 71.93 21.22 73.23 21.18 74.56 C21.13 76.64 21.09 78.71 21.05 80.78 C21.01 82.77 20.96 84.77 20.91 86.76 C20.88 87.96 20.86 89.16 20.83 90.39 C20.53 93.27 20.53 93.27 18.53 95.27 C16.04 95.52 16.04 95.52 12.93 95.53 C11.82 95.53 10.71 95.54 9.56 95.54 C8.4 95.53 7.23 95.52 6.03 95.52 C4.86 95.52 3.69 95.53 2.49 95.54 C1.38 95.54 0.27 95.53 -0.88 95.53 C-1.9 95.53 -2.93 95.53 -3.98 95.52 C-6.47 95.27 -6.47 95.27 -8.47 93.27 C-8.68 90.38 -8.76 87.6 -8.75 84.72 C-8.75 83.83 -8.76 82.95 -8.76 82.04 C-8.78 79.1 -8.78 76.17 -8.77 73.23 C-8.78 71.2 -8.78 69.17 -8.79 67.14 C-8.79 62.87 -8.79 58.61 -8.79 54.35 C-8.78 48.87 -8.8 43.4 -8.82 37.92 C-8.84 33.72 -8.84 29.52 -8.84 25.33 C-8.84 23.31 -8.84 21.29 -8.85 19.27 C-8.86 16.45 -8.86 13.63 -8.84 10.81 C-8.85 9.97 -8.86 9.13 -8.87 8.27 C-8.85 5.95 -8.85 5.95 -8.47 2.27 C-5.11 0.02 -3.94 0.01 0 0 Z " fill="#000000" transform="translate(664.47265625,436.734375)"/>
<path d="M0 0 C1.31 -0.01 2.63 -0.01 3.98 -0.02 C5.43 -0.02 6.87 -0.01 8.31 -0.01 C9.78 -0.01 11.25 -0.01 12.72 -0.01 C15.81 -0.02 18.9 -0.01 21.99 -0 C25.95 0.01 29.91 0 33.87 -0.01 C36.91 -0.02 39.95 -0.01 42.99 -0.01 C44.45 -0.01 45.91 -0.01 47.37 -0.01 C49.41 -0.02 51.45 -0.01 53.49 0 C55.24 0 55.24 0 57.01 0 C59.75 0.26 59.75 0.26 61.75 2.26 C62 4.2 62 4.2 62.01 6.54 C62.02 7.8 62.02 7.8 62.02 9.09 C62.01 9.97 62 10.85 62 11.76 C62.01 13.08 62.01 13.08 62.02 14.43 C62.02 15.27 62.01 16.11 62.01 16.98 C62.01 17.75 62.01 18.52 62 19.32 C61.75 21.26 61.75 21.26 59.75 23.26 C56.88 23.5 54.11 23.63 51.24 23.67 C50.4 23.69 49.56 23.71 48.69 23.73 C46 23.79 43.31 23.84 40.62 23.88 C38.8 23.92 36.98 23.96 35.16 24 C30.69 24.1 26.22 24.18 21.75 24.26 C21.42 27.23 21.09 30.2 20.75 33.26 C21.82 33.23 22.9 33.21 24 33.18 C27.99 33.09 31.98 33.03 35.96 32.98 C37.69 32.96 39.41 32.92 41.14 32.88 C43.62 32.82 46.1 32.79 48.58 32.77 C49.74 32.73 49.74 32.73 50.92 32.69 C53.1 32.69 53.1 32.69 56.75 33.26 C60.07 37.12 60.1 40.39 60 45.38 C59.98 46.6 59.97 47.82 59.95 49.08 C59.75 52.26 59.75 52.26 58.75 55.26 C55.57 56.85 52.16 56.38 48.68 56.36 C47.88 56.36 47.08 56.35 46.26 56.35 C43.72 56.35 41.17 56.33 38.62 56.32 C36.9 56.32 35.17 56.31 33.45 56.31 C29.21 56.3 24.98 56.28 20.75 56.26 C20.75 61.54 20.75 66.82 20.75 72.26 C21.92 72.25 23.09 72.24 24.29 72.23 C28.63 72.19 32.96 72.17 37.3 72.15 C39.18 72.14 41.05 72.13 42.93 72.11 C45.63 72.08 48.32 72.07 51.02 72.06 C51.86 72.05 52.71 72.04 53.57 72.03 C55.63 72.03 57.69 72.14 59.75 72.26 C62.15 74.67 62 75.25 62.01 78.54 C62.02 79.8 62.02 79.8 62.02 81.09 C62.01 81.97 62 82.85 62 83.76 C62.01 85.08 62.01 85.08 62.02 86.43 C62.02 87.27 62.01 88.11 62.01 88.98 C62.01 89.75 62.01 90.52 62 91.32 C61.75 93.26 61.75 93.26 59.75 95.26 C57.01 95.51 57.01 95.51 53.49 95.52 C52.18 95.52 50.86 95.53 49.51 95.54 C48.07 95.53 46.63 95.53 45.18 95.52 C43.71 95.53 42.24 95.53 40.77 95.53 C37.68 95.53 34.59 95.53 31.51 95.52 C27.55 95.51 23.58 95.51 19.62 95.53 C16.58 95.53 13.54 95.53 10.5 95.53 C9.04 95.53 7.58 95.53 6.12 95.53 C4.08 95.54 2.04 95.53 0 95.52 C-1.16 95.52 -2.32 95.51 -3.52 95.51 C-6.25 95.26 -6.25 95.26 -8.25 93.26 C-8.45 90.38 -8.53 87.59 -8.51 84.71 C-8.52 83.83 -8.52 82.94 -8.52 82.03 C-8.53 79.1 -8.53 76.16 -8.52 73.23 C-8.52 71.19 -8.52 69.16 -8.53 67.13 C-8.53 62.87 -8.52 58.6 -8.51 54.34 C-8.5 48.86 -8.51 43.39 -8.52 37.91 C-8.53 33.72 -8.53 29.52 -8.52 25.32 C-8.52 23.3 -8.52 21.28 -8.53 19.26 C-8.53 16.44 -8.52 13.63 -8.51 10.81 C-8.52 9.97 -8.52 9.13 -8.52 8.26 C-8.47 0.97 -7.1 0.01 0 0 Z " fill="#000000" transform="translate(758.25390625,436.7412109375)"/>
<path d="M0 0 C1.34 -0.01 1.34 -0.01 2.71 -0.02 C3.67 -0.01 4.63 -0 5.63 0.01 C6.62 0.01 7.61 0.01 8.63 0.01 C10.72 0.01 12.81 0.02 14.9 0.04 C18.11 0.06 21.32 0.06 24.53 0.05 C26.57 0.06 28.6 0.06 30.63 0.07 C31.59 0.07 32.56 0.07 33.55 0.07 C34.44 0.08 35.33 0.09 36.25 0.1 C37.04 0.1 37.82 0.11 38.63 0.11 C40.56 0.37 40.56 0.37 42.56 2.37 C42.83 5.29 42.83 5.29 42.85 9.07 C42.86 9.75 42.86 10.44 42.87 11.15 C42.89 13.43 42.89 15.72 42.9 18 C42.9 19.59 42.91 21.18 42.92 22.77 C42.93 26.11 42.93 29.45 42.93 32.79 C42.93 37.05 42.96 41.31 42.99 45.57 C43.01 48.86 43.02 52.15 43.02 55.44 C43.02 57.01 43.03 58.58 43.04 60.15 C43.15 71.88 41.85 80.68 33.63 89.58 C24.9 97.15 15.74 97.56 4.72 97.56 C2.63 97.56 0.55 97.58 -1.53 97.6 C-3.51 97.6 -3.51 97.6 -5.53 97.6 C-6.73 97.61 -7.94 97.61 -9.18 97.62 C-12.6 97.36 -15.92 96.89 -18.44 94.37 C-18.69 91.07 -18.62 87.75 -18.63 84.43 C-18.65 83.04 -18.65 83.04 -18.66 81.61 C-18.67 80.72 -18.67 79.83 -18.67 78.91 C-18.68 77.68 -18.68 77.68 -18.68 76.42 C-18.44 74.37 -18.44 74.37 -16.44 72.37 C-13.19 72.19 -10.25 72.2 -7.06 72.87 C-1.24 73.98 5.25 74.22 10.56 71.37 C12.96 66.16 12.9 61.01 12.97 55.38 C12.99 54.43 13.01 53.49 13.03 52.51 C13.09 49.51 13.14 46.5 13.19 43.5 C13.22 41.45 13.26 39.41 13.3 37.36 C13.4 32.37 13.48 27.37 13.56 22.37 C12.38 22.42 11.2 22.47 9.98 22.51 C8.42 22.55 6.87 22.59 5.31 22.62 C4.14 22.67 4.14 22.67 2.95 22.72 C-2.81 22.82 -2.81 22.82 -5.96 20.58 C-8.15 17.32 -7.93 14.69 -7.88 10.81 C-7.88 10.14 -7.89 9.47 -7.9 8.77 C-7.84 3.91 -7.84 3.91 -6.19 1.68 C-3.97 0.02 -2.75 -0 0 0 Z " fill="#000000" transform="translate(368.439697265625,435.627685546875)"/>
<path d="M0 0 C1.11 -0 2.22 -0.01 3.37 -0.01 C4.54 -0 5.7 0.01 6.91 0.02 C8.07 0.01 9.24 0 10.44 -0.01 C11.55 -0.01 12.67 -0 13.81 0 C14.84 0 15.86 0 16.92 0.01 C19.41 0.27 19.41 0.27 21.41 2.27 C21.65 5.16 21.65 5.16 21.63 8.92 C21.63 9.6 21.63 10.28 21.63 10.99 C21.63 13.25 21.62 15.51 21.6 17.77 C21.6 19.34 21.59 20.91 21.59 22.47 C21.59 26.6 21.57 30.73 21.54 34.85 C21.52 39.8 21.51 44.75 21.5 49.7 C21.48 57.22 21.44 64.74 21.41 72.27 C34.61 72.27 47.81 72.27 61.41 72.27 C63.28 76.95 63.7 79.43 63.72 84.33 C63.74 85.54 63.75 86.74 63.77 87.99 C63.37 91.6 62.98 92.76 60.41 95.27 C57.55 95.76 57.55 95.76 54.04 95.75 C52.07 95.76 52.07 95.76 50.05 95.77 C48.62 95.76 47.18 95.74 45.75 95.73 C44.28 95.72 42.8 95.72 41.33 95.72 C38.25 95.72 35.17 95.7 32.09 95.68 C28.14 95.64 24.18 95.64 20.23 95.64 C17.2 95.64 14.16 95.63 11.12 95.61 C9.67 95.6 8.21 95.6 6.75 95.6 C4.71 95.6 2.68 95.58 0.64 95.56 C-0.51 95.55 -1.67 95.54 -2.87 95.53 C-5.59 95.27 -5.59 95.27 -7.59 93.27 C-7.79 90.38 -7.87 87.6 -7.85 84.72 C-7.86 83.83 -7.86 82.95 -7.86 82.04 C-7.87 79.1 -7.87 76.17 -7.86 73.23 C-7.86 71.2 -7.86 69.17 -7.87 67.14 C-7.87 62.87 -7.86 58.61 -7.85 54.35 C-7.84 48.87 -7.85 43.4 -7.86 37.92 C-7.87 33.72 -7.87 29.52 -7.86 25.33 C-7.86 23.31 -7.86 21.29 -7.87 19.27 C-7.87 16.45 -7.86 13.63 -7.85 10.81 C-7.86 9.97 -7.86 9.13 -7.86 8.27 C-7.81 1.43 -6.79 0.01 0 0 Z " fill="#010101" transform="translate(306.59375,74.734375)"/>
<path d="M0 0 C1.11 -0 2.22 -0.01 3.37 -0.01 C4.54 -0 5.7 0.01 6.91 0.02 C8.07 0.01 9.24 0 10.44 -0.01 C11.55 -0.01 12.67 -0 13.81 0 C14.84 0 15.86 0 16.92 0.01 C19.41 0.27 19.41 0.27 21.41 2.27 C21.73 5.25 21.73 5.25 21.82 9.02 C21.84 9.69 21.86 10.35 21.88 11.03 C21.94 13.15 21.99 15.27 22.03 17.39 C22.07 18.83 22.11 20.26 22.15 21.7 C22.24 25.22 22.33 28.74 22.41 32.27 C28.4 25.01 34.22 17.65 39.87 10.12 C40.67 9.07 40.67 9.07 41.49 7.99 C41.95 7.37 42.42 6.75 42.9 6.11 C43.4 5.5 43.89 4.89 44.41 4.27 C44.99 3.54 45.57 2.81 46.17 2.06 C49.22 -0.39 51.19 -0.22 55.07 -0.2 C56.36 -0.19 57.64 -0.19 58.97 -0.18 C59.97 -0.16 59.97 -0.16 60.99 -0.15 C63.03 -0.11 65.07 -0.1 67.12 -0.11 C77.13 -0.02 77.13 -0.02 79.41 2.27 C79.17 6.68 77.41 8.78 74.41 11.89 C70.34 16.23 66.55 20.7 62.82 25.32 C61.05 27.47 59.28 29.6 57.46 31.71 C56.97 32.29 56.47 32.87 55.96 33.47 C54.99 34.6 54.01 35.73 53.04 36.85 C50.75 39.52 48.78 42.01 47.41 45.27 C48.06 46.09 48.72 46.92 49.39 47.77 C55.09 54.97 60.68 62.25 66.18 69.62 C69.86 74.55 73.59 79.43 77.41 84.27 C79.06 81.78 80 79.95 81 77.21 C81.46 75.98 81.46 75.98 81.92 74.73 C82.4 73.4 82.4 73.4 82.9 72.04 C83.24 71.1 83.58 70.17 83.94 69.21 C84.67 67.21 85.41 65.21 86.14 63.2 C87.28 60.07 88.43 56.94 89.59 53.82 C92.51 45.88 95.42 37.95 98.33 30.01 C99.72 26.21 101.12 22.42 102.52 18.63 C103.03 17.27 103.53 15.91 104.02 14.54 C104.7 12.67 105.39 10.81 106.09 8.94 C106.46 7.91 106.84 6.88 107.23 5.81 C109.08 1.79 109.08 1.79 111.41 0.27 C114.41 -0.07 114.41 -0.07 118.04 -0.03 C119.34 -0.02 120.64 -0.01 121.98 0 C123.35 0.03 124.72 0.05 126.09 0.08 C127.48 0.09 128.86 0.11 130.24 0.12 C133.63 0.15 137.02 0.2 140.41 0.27 C144.6 8.07 147.72 16.13 150.71 24.46 C151.21 25.82 151.7 27.18 152.2 28.54 C153.49 32.1 154.78 35.66 156.06 39.22 C157.61 43.5 159.16 47.78 160.71 52.06 C161.95 55.48 163.19 58.9 164.43 62.33 C166.4 67.79 168.37 73.24 170.5 78.65 C170.79 79.4 171.09 80.15 171.39 80.92 C172.11 82.75 172.85 84.57 173.6 86.4 C174.47 89.51 174.39 91.21 173.41 94.27 C170.74 96.93 163.11 95.55 159.53 95.58 C158.32 95.61 157.11 95.64 155.86 95.67 C154.12 95.68 154.12 95.68 152.35 95.69 C151.28 95.71 150.22 95.72 149.12 95.74 C146.41 95.27 146.41 95.27 144.61 93.42 C143.11 90.74 142.16 88.07 141.22 85.14 C140.87 84.09 140.53 83.03 140.18 81.95 C139.41 79.27 139.41 79.27 139.41 77.27 C130.17 77.6 120.93 77.93 111.41 78.27 C109.88 83.11 109.88 83.11 108.39 87.96 C107.19 91.66 106.73 93.05 103.41 95.27 C101.03 95.54 101.03 95.54 98.19 95.57 C97.12 95.59 96.06 95.6 94.96 95.62 C93.81 95.63 92.66 95.63 91.48 95.64 C89.7 95.65 89.7 95.65 87.89 95.66 C85.39 95.68 82.89 95.69 80.38 95.69 C76.55 95.7 72.72 95.75 68.89 95.8 C66.46 95.81 64.03 95.82 61.6 95.82 C60.46 95.84 59.31 95.86 58.13 95.88 C50.17 95.84 50.17 95.84 46.35 92.99 C45.71 92.09 45.07 91.19 44.41 90.27 C43.83 89.58 43.25 88.89 42.65 88.19 C42.13 87.52 41.6 86.85 41.07 86.16 C40.48 85.4 39.89 84.65 39.28 83.87 C38.68 83.09 38.09 82.32 37.47 81.52 C36.58 80.37 36.58 80.37 35.67 79.21 C31.66 74.05 27.96 68.75 24.41 63.27 C21.66 66.02 22.13 67.67 22.06 71.52 C22.02 73.39 22.02 73.39 21.97 75.3 C21.95 76.61 21.93 77.92 21.91 79.27 C21.86 81.85 21.81 84.43 21.75 87.02 C21.73 88.17 21.71 89.32 21.69 90.5 C21.41 93.27 21.41 93.27 19.41 95.27 C16.92 95.52 16.92 95.52 13.81 95.53 C12.7 95.53 11.59 95.54 10.44 95.54 C9.27 95.53 8.11 95.52 6.91 95.52 C5.74 95.52 4.57 95.53 3.37 95.54 C2.26 95.54 1.15 95.53 0 95.53 C-1.02 95.53 -2.05 95.53 -3.1 95.52 C-5.59 95.27 -5.59 95.27 -7.59 93.27 C-7.79 90.38 -7.87 87.6 -7.85 84.72 C-7.86 83.83 -7.86 82.95 -7.86 82.04 C-7.87 79.1 -7.87 76.17 -7.86 73.23 C-7.86 71.2 -7.86 69.17 -7.87 67.14 C-7.87 62.87 -7.86 58.61 -7.85 54.35 C-7.84 48.87 -7.85 43.4 -7.86 37.92 C-7.87 33.72 -7.87 29.52 -7.86 25.33 C-7.86 23.31 -7.86 21.29 -7.87 19.27 C-7.87 16.45 -7.86 13.63 -7.85 10.81 C-7.86 9.97 -7.86 9.13 -7.86 8.27 C-7.81 1.43 -6.79 0.01 0 0 Z M-2.59 4.27 C-2.59 32.98 -2.59 61.69 -2.59 91.27 C4.01 91.27 10.61 91.27 17.41 91.27 C17.43 89.15 17.46 87.03 17.48 84.84 C17.52 82.79 17.57 80.73 17.61 78.67 C17.64 77.24 17.66 75.81 17.68 74.38 C17.7 72.33 17.75 70.27 17.8 68.22 C17.82 66.98 17.84 65.75 17.86 64.47 C18.41 61.27 18.41 61.27 20.19 58.77 C22.41 57.27 22.41 57.27 24.46 57.28 C26.9 58.52 27.93 59.83 29.51 62.06 C30.08 62.85 30.64 63.64 31.23 64.45 C31.82 65.3 32.42 66.14 33.03 67.02 C34.28 68.75 35.52 70.48 36.77 72.21 C37.38 73.07 38 73.92 38.63 74.81 C41.09 78.22 43.64 81.56 46.22 84.89 C47.01 85.91 47.8 86.94 48.61 87.99 C50.21 90.11 50.21 90.11 51.41 91.27 C53.19 91.35 54.97 91.37 56.75 91.36 C57.83 91.36 58.91 91.36 60.03 91.35 C61.16 91.35 62.3 91.34 63.47 91.33 C64.61 91.32 65.75 91.32 66.92 91.31 C69.75 91.3 72.58 91.29 75.41 91.27 C74.02 88.29 72.4 85.75 70.42 83.13 C69.82 82.33 69.22 81.54 68.61 80.71 C67.96 79.87 67.32 79.02 66.66 78.14 C66 77.26 65.33 76.39 64.65 75.48 C59.43 68.58 54.14 61.73 48.8 54.92 C48.25 54.22 47.7 53.51 47.14 52.79 C46.66 52.18 46.18 51.57 45.68 50.94 C42.4 46.63 42.4 46.63 42.45 43.98 C43.77 40.23 46.15 37.67 48.78 34.77 C49.88 33.52 50.97 32.28 52.07 31.04 C52.9 30.1 52.9 30.1 53.75 29.14 C56.29 26.26 58.75 23.33 61.22 20.39 C64.82 16.11 68.48 11.89 72.26 7.75 C73.61 6.31 73.61 6.31 73.41 4.27 C59.98 2.65 59.98 2.65 47.45 6.04 C45.43 8.66 43.95 11.33 42.41 14.27 C40.83 16.38 39.24 18.45 37.59 20.52 C36.75 21.61 35.91 22.7 35.07 23.8 C34.64 24.36 34.21 24.92 33.77 25.49 C32.82 26.72 31.88 27.96 30.94 29.2 C29.45 31.14 27.96 33.08 26.47 35.02 C26.01 35.62 25.55 36.23 25.07 36.86 C21.75 41.15 21.75 41.15 18.41 42.27 C18.08 29.73 17.75 17.19 17.41 4.27 C10.81 4.27 4.21 4.27 -2.59 4.27 Z M113.41 4.27 C110.86 10.2 108.39 16.11 106.41 22.27 C105.1 26.31 103.64 30.23 101.97 34.14 C98.37 42.59 95.38 51.25 92.53 59.98 C90.5 66.19 88.28 72.22 85.62 78.19 C83.94 82.45 82.72 86.88 81.41 91.27 C88.34 91.27 95.27 91.27 102.41 91.27 C103.03 89.04 103.64 86.81 104.28 84.52 C105.39 80.54 106.5 76.92 108.41 73.27 C113.05 73.14 117.69 73.05 122.34 72.99 C123.92 72.97 125.5 72.93 127.08 72.89 C129.35 72.83 131.62 72.8 133.89 72.78 C134.95 72.74 134.95 72.74 136.03 72.7 C138.04 72.7 138.04 72.7 141.41 73.27 C145.49 78.26 146.63 85.19 148.41 91.27 C155.34 91.27 162.27 91.27 169.41 91.27 C167.91 83.8 165.1 76.94 162.23 69.9 C159.37 62.86 156.84 55.78 154.49 48.55 C153.47 45.47 152.38 42.44 151.21 39.41 C150.08 36.4 149.03 33.36 147.97 30.33 C146.28 25.56 144.44 20.96 142.32 16.37 C141 13.32 140 10.19 139.02 7.02 C138.55 5.26 138.55 5.26 137.41 4.27 C135.63 4.18 133.84 4.16 132.06 4.17 C130.98 4.17 129.9 4.17 128.79 4.18 C127.08 4.19 127.08 4.19 125.34 4.2 C123.63 4.21 123.63 4.21 121.89 4.22 C119.06 4.23 116.23 4.25 113.41 4.27 Z " fill="#161616" transform="translate(22.59375,74.734375)"/>
<path d="M0 0 C1 -0 1 -0 2.03 -0.01 C4.28 -0.01 6.52 -0.01 8.77 -0.01 C10.38 -0.01 11.99 -0.02 13.6 -0.02 C17.98 -0.03 22.35 -0.03 26.73 -0.03 C30.38 -0.03 34.03 -0.04 37.68 -0.04 C46.29 -0.05 54.9 -0.05 63.52 -0.05 C72.4 -0.05 81.29 -0.06 90.18 -0.08 C97.81 -0.09 105.44 -0.1 113.06 -0.1 C117.62 -0.09 122.18 -0.1 126.74 -0.11 C131.02 -0.12 135.31 -0.12 139.59 -0.11 C141.17 -0.11 142.74 -0.11 144.31 -0.12 C146.46 -0.13 148.61 -0.12 150.75 -0.11 C151.95 -0.11 153.16 -0.11 154.4 -0.12 C157.44 0.13 157.44 0.13 161.44 2.13 C161.44 5.1 161.44 8.07 161.44 11.13 C157.22 13.24 155.36 13.38 150.75 13.38 C150.08 13.38 149.41 13.39 148.72 13.39 C146.47 13.39 144.23 13.39 141.98 13.38 C140.37 13.38 138.76 13.38 137.14 13.38 C132.77 13.39 128.39 13.38 124.02 13.37 C119.44 13.36 114.86 13.36 110.29 13.36 C102.6 13.36 94.92 13.35 87.23 13.34 C78.34 13.32 69.46 13.32 60.57 13.32 C52.02 13.32 43.47 13.31 34.93 13.31 C31.29 13.3 27.65 13.3 24.01 13.3 C19.72 13.3 15.44 13.29 11.16 13.28 C9.58 13.28 8.01 13.28 6.43 13.28 C4.29 13.28 2.14 13.27 0 13.27 C-1.2 13.27 -2.4 13.26 -3.64 13.26 C-6.56 13.13 -6.56 13.13 -9.56 12.13 C-11.05 9.15 -10.68 6.43 -10.56 3.13 C-8.53 -0.92 -4 0.01 0 0 Z " fill="#000000" transform="translate(653.5599212646484,116.86628723144531)"/>
<path d="M0 0 C101.97 0 203.94 0 309 0 C309 2.31 309 4.62 309 7 C207.03 7 105.06 7 0 7 C-1 2 -1 2 0 0 Z " fill="#000000" transform="translate(23,481)"/>
<path d="M0 0 C1.05 -0.01 2.09 -0.03 3.17 -0.04 C4.87 -0.04 4.87 -0.04 6.61 -0.05 C8.37 -0.06 8.37 -0.06 10.16 -0.07 C12.64 -0.08 15.12 -0.08 17.61 -0.08 C21.38 -0.08 25.15 -0.12 28.93 -0.16 C31.34 -0.16 33.76 -0.17 36.17 -0.17 C37.85 -0.19 37.85 -0.19 39.56 -0.21 C49.92 -0.15 58.72 2.14 66.33 9.43 C71.77 15.54 73.33 21.82 73.2 29.83 C72.46 38.48 69.03 45.89 62.45 51.63 C60.98 52.87 59.49 54.08 57.99 55.29 C59.31 57.02 60.63 58.75 61.95 60.47 C63.11 61.99 64.27 63.51 65.42 65.03 C68.5 69.06 71.6 73.07 74.78 77.03 C75.68 78.16 75.68 78.16 76.6 79.32 C77.76 80.78 78.93 82.23 80.11 83.67 C84.01 88.61 84.01 88.61 83.9 92.21 C82.99 94.29 82.99 94.29 81.99 95.29 C77.83 95.65 73.66 95.73 69.48 95.81 C68.08 95.84 66.68 95.88 65.28 95.95 C53.79 96.47 53.79 96.47 49.7 93.79 C47.86 91.73 46.44 89.64 44.99 87.29 C43.87 85.77 42.74 84.26 41.6 82.75 C40.5 81.2 39.4 79.65 38.3 78.1 C37.2 76.55 36.09 74.99 34.98 73.44 C34.47 72.72 33.95 72 33.43 71.25 C32.2 69.58 30.91 67.97 29.6 66.36 C27.99 64.29 27.99 64.29 27.99 62.29 C26.01 62.29 24.03 62.29 21.99 62.29 C22 63.22 22.01 64.15 22.02 65.1 C22.06 68.54 22.08 71.98 22.1 75.43 C22.11 76.92 22.12 78.41 22.14 79.9 C22.17 82.03 22.18 84.17 22.19 86.31 C22.2 87.6 22.21 88.89 22.22 90.22 C21.99 93.29 21.99 93.29 19.99 95.29 C17.5 95.55 17.5 95.55 14.4 95.56 C13.28 95.56 12.17 95.56 11.03 95.56 C9.86 95.56 8.69 95.55 7.49 95.54 C6.32 95.55 5.16 95.56 3.96 95.56 C2.84 95.56 1.73 95.56 0.58 95.56 C-0.44 95.55 -1.46 95.55 -2.52 95.55 C-5.01 95.29 -5.01 95.29 -7.01 93.29 C-7.21 90.41 -7.28 87.62 -7.27 84.74 C-7.27 83.86 -7.28 82.97 -7.28 82.06 C-7.29 79.13 -7.28 76.19 -7.28 73.26 C-7.28 71.23 -7.28 69.19 -7.28 67.16 C-7.28 62.9 -7.28 58.63 -7.27 54.37 C-7.26 48.9 -7.27 43.42 -7.28 37.95 C-7.28 33.75 -7.28 29.55 -7.28 25.35 C-7.28 23.33 -7.28 21.31 -7.28 19.29 C-7.29 16.48 -7.28 13.66 -7.27 10.84 C-7.27 10 -7.28 9.16 -7.28 8.29 C-7.23 1.89 -6.49 0.05 0 0 Z M-3.01 4.29 C-3.03 15.49 -3.05 26.68 -3.06 37.88 C-3.07 43.08 -3.07 48.27 -3.08 53.47 C-3.1 58.48 -3.1 63.5 -3.1 68.51 C-3.11 70.42 -3.11 72.34 -3.12 74.26 C-3.12 76.93 -3.12 79.61 -3.12 82.28 C-3.13 83.08 -3.13 83.88 -3.13 84.71 C-3.46 88.3 -3.46 88.3 -2.01 91.29 C-0.61 91.39 0.8 91.42 2.21 91.42 C3.06 91.42 3.91 91.43 4.78 91.43 C5.68 91.42 6.57 91.42 7.49 91.42 C8.38 91.42 9.28 91.42 10.2 91.43 C11.47 91.43 11.47 91.43 12.77 91.42 C13.56 91.42 14.34 91.42 15.15 91.42 C17.01 91.49 17.01 91.49 17.99 90.29 C18.15 88 18.24 85.71 18.31 83.41 C18.33 82.72 18.35 82.04 18.37 81.33 C18.44 79.13 18.49 76.93 18.55 74.73 C18.6 73.24 18.64 71.75 18.68 70.26 C18.79 66.6 18.89 62.95 18.99 59.29 C28.97 58.57 28.97 58.57 32.68 61.2 C33.61 62.55 33.61 62.55 34.55 63.92 C35.27 64.91 35.99 65.91 36.73 66.94 C37.09 67.48 37.46 68.02 37.83 68.58 C39.05 70.38 40.32 72.14 41.6 73.89 C43.29 76.23 44.97 78.57 46.63 80.93 C47.03 81.48 47.42 82.02 47.83 82.58 C48.99 84.29 48.99 84.29 49.97 86.25 C51.14 88.41 52.06 89.77 53.99 91.29 C58.12 92.15 62.1 91.95 66.3 91.73 C67.43 91.7 68.55 91.66 69.7 91.63 C72.47 91.55 75.23 91.44 77.99 91.29 C76.84 88.16 75.69 85.61 73.56 83.05 C73.08 82.46 72.6 81.88 72.1 81.28 C71.59 80.66 71.08 80.05 70.55 79.42 C69.48 78.09 68.4 76.76 67.33 75.43 C66.78 74.75 66.23 74.07 65.66 73.37 C62.96 70 60.29 66.61 57.68 63.17 C57.19 62.55 56.71 61.94 56.21 61.3 C54.18 58.6 52.98 56.92 53.03 53.48 C54.47 50.21 57.01 49.18 59.99 47.29 C66.12 40.87 68.15 35.95 68.43 27.23 C68.26 20.58 67.13 17.43 62.41 12.72 C53.37 4.3 43.06 4.13 31.37 4.19 C30.38 4.19 29.39 4.2 28.37 4.2 C25.25 4.2 22.12 4.22 18.99 4.23 C16.86 4.23 14.73 4.24 12.6 4.24 C7.39 4.25 2.19 4.27 -3.01 4.29 Z " fill="#171717" transform="translate(211.009521484375,74.70947265625)"/>
<path d="M0 0 C1.11 -0 2.22 -0.01 3.37 -0.01 C4.54 -0 5.7 0.01 6.91 0.02 C8.07 0.01 9.24 0 10.44 -0.01 C11.55 -0.01 12.67 -0 13.81 0 C14.84 0 15.86 0 16.92 0.01 C19.41 0.27 19.41 0.27 21.41 2.27 C21.65 5.16 21.65 5.16 21.63 8.92 C21.63 9.6 21.63 10.28 21.63 10.99 C21.63 13.25 21.62 15.51 21.6 17.77 C21.6 19.34 21.59 20.91 21.59 22.47 C21.59 26.6 21.57 30.73 21.54 34.85 C21.52 39.8 21.51 44.75 21.5 49.7 C21.48 57.22 21.44 64.74 21.41 72.27 C34.61 72.27 47.81 72.27 61.41 72.27 C63.28 76.95 63.7 79.43 63.72 84.33 C63.74 85.54 63.75 86.74 63.77 87.99 C63.37 91.6 62.98 92.76 60.41 95.27 C57.55 95.76 57.55 95.76 54.04 95.75 C52.07 95.76 52.07 95.76 50.05 95.77 C48.62 95.76 47.18 95.74 45.75 95.73 C44.28 95.72 42.8 95.72 41.33 95.72 C38.25 95.72 35.17 95.7 32.09 95.68 C28.14 95.64 24.18 95.64 20.23 95.64 C17.2 95.64 14.16 95.63 11.12 95.61 C9.67 95.6 8.21 95.6 6.75 95.6 C4.71 95.6 2.68 95.58 0.64 95.56 C-0.51 95.55 -1.67 95.54 -2.87 95.53 C-5.59 95.27 -5.59 95.27 -7.59 93.27 C-7.79 90.38 -7.87 87.6 -7.85 84.72 C-7.86 83.83 -7.86 82.95 -7.86 82.04 C-7.87 79.1 -7.87 76.17 -7.86 73.23 C-7.86 71.2 -7.86 69.17 -7.87 67.14 C-7.87 62.87 -7.86 58.61 -7.85 54.35 C-7.84 48.87 -7.85 43.4 -7.86 37.92 C-7.87 33.72 -7.87 29.52 -7.86 25.33 C-7.86 23.31 -7.86 21.29 -7.87 19.27 C-7.87 16.45 -7.86 13.63 -7.85 10.81 C-7.86 9.97 -7.86 9.13 -7.86 8.27 C-7.81 1.43 -6.79 0.01 0 0 Z M-3.59 4.27 C-3.62 15.46 -3.63 26.66 -3.65 37.85 C-3.65 43.05 -3.66 48.25 -3.67 53.45 C-3.68 58.46 -3.69 63.47 -3.69 68.48 C-3.69 70.4 -3.69 72.32 -3.7 74.23 C-3.71 76.91 -3.71 79.58 -3.71 82.26 C-3.71 83.06 -3.71 83.86 -3.72 84.68 C-4.05 88.27 -4.05 88.27 -2.59 91.27 C-0.69 91.36 1.21 91.38 3.12 91.38 C4.95 91.38 4.95 91.38 6.82 91.38 C8.16 91.37 9.51 91.37 10.85 91.36 C12.21 91.36 13.58 91.36 14.95 91.36 C18.55 91.36 22.15 91.35 25.75 91.33 C29.43 91.32 33.1 91.32 36.77 91.31 C43.98 91.3 51.19 91.29 58.41 91.27 C58.41 86.32 58.41 81.37 58.41 76.27 C38.61 75.77 38.61 75.77 18.41 75.27 C17.91 40.12 17.91 40.12 17.41 4.27 C10.48 4.27 3.55 4.27 -3.59 4.27 Z " fill="#171717" transform="translate(306.59375,74.734375)"/>
<path d="M0 0 C3.18 -0.06 6.35 -0.12 9.62 -0.19 C11.11 -0.23 11.11 -0.23 12.62 -0.27 C17.83 -0.32 21.57 -0.04 26 3 C28.8 5.85 29.43 7.91 29.44 11.88 C29.28 16.64 28.26 19.39 25 23 C20.28 26.89 15.49 26.35 9.69 26.19 C4.89 26.09 4.89 26.09 0 26 C0 17.42 0 8.84 0 0 Z M4 4 C4 9.94 4 15.88 4 22 C14.11 22.4 14.11 22.4 23 18.38 C24.55 14.7 24.38 11.99 24 8 C22.6 5.84 21.72 5.24 19.31 4.44 C16.26 3.86 13.35 3.91 10.25 3.94 C7.16 3.97 7.16 3.97 4 4 Z " fill="#171717" transform="translate(229,93)"/>
<path d="M0 0 C1.9 0.27 1.9 0.27 4 1 C4.96 2.62 4.96 2.62 5.6 4.72 C5.96 5.87 5.96 5.87 6.34 7.05 C6.58 7.86 6.82 8.67 7.06 9.5 C7.31 10.28 7.55 11.06 7.8 11.86 C8.29 13.44 8.78 15.02 9.25 16.61 C9.76 18.22 10.3 19.83 10.89 21.43 C11.17 22.2 11.45 22.98 11.75 23.78 C12.01 24.47 12.27 25.16 12.54 25.88 C13 28 13 28 12 33 C5.07 33 -1.86 33 -9 33 C-10.03 27.87 -9.46 25.36 -7.75 20.69 C-7.52 20.02 -7.28 19.36 -7.04 18.67 C-6.38 16.78 -5.69 14.89 -5 13 C-4.69 12.15 -4.38 11.3 -4.07 10.42 C-2.78 6.92 -1.4 3.45 0 0 Z M1 11 C0.16 13.44 -0.67 15.87 -1.5 18.31 C-1.74 19 -1.98 19.69 -2.22 20.4 C-3.23 23.39 -4 25.83 -4 29 C-0.04 29 3.92 29 8 29 C6.38 22.74 4.73 16.86 2 11 C1.67 11 1.34 11 1 11 Z " fill="#171717" transform="translate(146,101)"/>
</svg>
